<svg width="463" height="390" viewBox="0 0 463 390" fill="none" xmlns="http://www.w3.org/2000/svg">
<g clip-path="url(#clip0_685:795)">
<path d="M367.306 351.448C367.306 361.988 285.217 370.611 184.107 370.611C82.998 370.611 0.90918 361.988 0.90918 351.448C0.90918 340.909 82.998 332.286 184.107 332.286C285.217 332.286 367.306 340.909 367.306 351.448Z" fill="#D0CFD9"/>
<path d="M390.83 193.836C390.83 278.151 319.753 346.178 231.658 346.178C143.563 346.178 72.4858 278.151 72.4858 193.836C72.4858 109.521 143.563 41.4934 231.658 41.4934C319.253 41.4934 390.83 110 390.83 193.836Z" fill="#A9E8EF"/>
<path d="M187.107 47.7214C187.107 47.7214 151.068 66.884 172.592 73.5909C194.115 80.2978 216.639 71.1956 239.664 84.1303C263.19 97.065 269.196 104.73 256.683 121.497C243.669 138.265 219.142 151.678 242.667 167.487C266.193 182.818 255.682 213.478 275.203 220.664C294.724 228.329 306.236 215.873 324.256 194.315C342.275 172.757 345.779 144.013 352.286 127.246C358.793 110.479 360.295 104.251 360.295 104.251C360.295 104.251 301.231 19.4567 187.107 47.7214Z" fill="#80D2D6"/>
<path d="M85.9996 132.037C85.9996 132.037 109.025 112.395 115.532 116.707C122.039 121.018 135.553 123.414 139.057 144.013C142.06 164.613 121.538 176.111 141.56 188.566C161.581 201.022 181.603 217.789 175.096 233.598C168.589 249.887 168.589 269.528 165.586 286.774C162.583 304.021 148.567 323.662 148.567 323.662C148.567 323.662 31.4406 261.863 85.9996 132.037Z" fill="#80D2D6"/>
<path d="M195.119 342.346C195.119 342.346 193.617 303.063 214.139 308.332C234.161 313.123 236.664 327.974 245.173 320.309C253.682 312.165 256.685 291.086 270.2 287.732C283.715 283.9 296.729 291.565 312.245 282.942C327.762 274.319 353.79 265.216 359.797 266.175C365.803 267.612 362.8 281.026 362.8 281.026C362.8 281.026 305.238 366.778 195.119 342.346Z" fill="#80D2D6"/>
<path d="M212.64 46.7632C212.64 72.6326 190.616 93.2324 164.087 93.2324C137.058 93.2324 115.535 72.1535 115.535 46.7632C115.535 21.3728 137.058 0.293945 164.087 0.293945C191.116 0.293945 212.64 21.3728 212.64 46.7632Z" fill="#F3A43D"/>
<path d="M210.137 46.7631C210.137 71.1954 189.615 90.837 164.087 90.837C138.56 90.837 118.038 71.1954 118.038 46.7631C118.038 22.3308 138.56 2.68921 164.087 2.68921C189.615 2.68921 210.137 22.3308 210.137 46.7631Z" fill="#FED150"/>
<path d="M200.628 46.7632C200.628 65.9257 184.111 81.7349 164.089 81.7349C144.067 81.7349 127.549 65.9257 127.549 46.7632C127.549 27.6006 144.067 11.7915 164.089 11.7915C184.111 12.2706 200.628 27.6006 200.628 46.7632Z" fill="#F3A43D"/>
<path d="M199.126 48.2003C199.126 66.4047 183.609 81.7347 164.088 81.7347C145.068 81.7347 129.05 66.8838 129.05 48.2003C129.05 29.9958 144.567 14.6658 164.088 14.6658C183.109 15.1448 199.126 29.9958 199.126 48.2003Z" fill="#FFE984"/>
<path d="M404.059 305.762C404.389 280.101 382.922 259.018 356.11 258.672C329.298 258.327 307.295 278.85 306.964 304.512C306.634 330.173 328.102 351.257 354.914 351.602C381.726 351.947 403.729 331.424 404.059 305.762Z" fill="#F3A43D"/>
<path d="M401.844 304.979C401.844 329.411 381.322 349.053 355.794 349.053C330.266 349.053 309.744 329.411 309.744 304.979C309.744 280.546 330.266 260.905 355.794 260.905C380.821 260.905 401.844 280.546 401.844 304.979Z" fill="#FED150"/>
<path d="M391.832 304.979C391.832 324.141 375.314 339.95 355.292 339.95C335.271 339.95 318.753 324.141 318.753 304.979C318.753 285.816 335.271 270.007 355.292 270.007C375.815 270.007 391.832 285.816 391.832 304.979Z" fill="#F3A43D"/>
<path d="M390.334 306.416C390.334 324.62 374.817 339.95 355.296 339.95C335.775 339.95 320.258 325.099 320.258 306.416C320.258 288.211 335.775 272.881 355.296 272.881C374.817 272.881 390.334 287.732 390.334 306.416Z" fill="#FFE984"/>
<path d="M427.873 101.855C427.873 111.437 421.366 116.706 414.358 116.706C406.85 116.706 400.844 111.437 400.844 102.334C400.844 94.1903 406.35 87.4834 414.358 87.4834C422.868 87.9625 427.873 93.7112 427.873 101.855ZM409.353 102.334C409.353 107.125 410.855 110.958 414.358 110.958C417.362 110.958 419.364 107.604 419.364 102.334C419.364 97.5437 417.862 93.7112 414.358 93.7112C410.855 93.7112 409.353 97.5437 409.353 102.334ZM414.859 136.348L442.889 87.9625H448.896L420.865 136.348H414.859ZM462.911 121.497C462.911 131.557 456.404 136.348 449.396 136.348C441.888 136.348 435.882 131.078 435.882 121.976C435.882 113.832 441.388 107.125 449.396 107.125C458.406 107.604 462.911 113.353 462.911 121.497ZM444.891 121.976C444.891 126.767 446.393 130.599 449.897 130.599C452.9 130.599 454.902 127.246 454.902 121.976C454.902 117.185 453.401 113.353 449.897 113.353C446.393 113.353 444.891 117.185 444.891 121.976Z" fill="#A9E8EF"/>
<path d="M48.9619 63.0511C48.9619 72.6324 42.4548 77.9021 35.4472 77.9021C27.9391 77.9021 21.9326 72.6324 21.9326 63.5302C21.9326 55.3861 27.4386 48.6792 35.4472 48.6792C44.457 48.6792 48.9619 54.907 48.9619 63.0511ZM30.4418 63.5302C30.4418 68.3208 31.9435 72.1533 35.4472 72.1533C38.4505 72.1533 40.4527 68.7999 40.4527 63.5302C40.4527 58.7395 38.951 54.907 35.4472 54.907C31.9435 54.907 30.4418 58.7395 30.4418 63.5302ZM35.9478 97.5437L63.9781 49.1583H69.9846L41.9543 97.5437H35.9478ZM84.5003 82.2137C84.5003 92.274 77.9933 97.0647 70.9857 97.0647C63.4776 97.0647 57.4711 91.795 57.4711 82.6928C57.4711 74.5487 62.977 67.8418 70.9857 67.8418C79.4949 68.3208 84.5003 74.5487 84.5003 82.2137ZM65.9803 82.6928C65.9803 87.4834 67.4819 91.3159 70.9857 91.3159C73.989 91.3159 75.9911 87.9625 75.9911 82.6928C75.9911 77.9021 74.4895 74.0696 70.9857 74.0696C67.4819 74.5487 65.9803 78.3812 65.9803 82.6928Z" fill="#A9E8EF"/>
<path d="M102.519 326.058L201.626 283.9L358.796 54.9074L345.281 47.7214L191.615 268.091L102.519 326.058Z" fill="#D8D845"/>
<path d="M299.733 61.6141L342.279 65.9257L359.798 94.1905V91.3161L368.808 31.4331L299.733 61.6141Z" fill="#D8D845"/>
<path d="M224.153 204.376C224.153 204.376 238.169 214.915 232.663 214.436C227.157 213.957 222.652 213.478 219.148 205.813L224.153 204.376Z" fill="#EFC18F"/>
<path d="M229.658 124.372C229.658 121.497 228.156 115.269 222.65 118.144C213.14 122.935 201.127 154.553 200.627 162.218C200.126 169.883 219.647 206.771 219.647 206.771C219.647 206.771 224.152 208.208 225.654 203.896L212.64 162.218C212.139 162.218 230.159 134.432 229.658 124.372Z" fill="#9991E2"/>
<path d="M216.644 364.383L217.145 372.527L208.636 371.09L208.135 360.55L216.644 364.383Z" fill="#FFD9A7"/>
<path d="M272.203 357.197L272.703 365.341L264.194 363.904L263.693 352.885L272.203 357.197Z" fill="#FFD9A7"/>
<path d="M272.205 361.987C272.205 361.987 268.201 366.778 263.195 363.425C263.195 363.425 257.689 377.796 267.7 378.755C278.212 379.713 296.732 375.88 298.734 371.569C301.737 365.341 284.719 362.945 272.205 361.987Z" fill="#6B5A84"/>
<path d="M216.643 370.611C216.643 370.611 211.638 373.964 207.634 369.173C207.634 369.173 197.623 381.15 207.133 385.462C216.643 389.773 235.163 391.689 238.667 387.857C243.673 382.587 228.656 374.922 216.643 370.611Z" fill="#6B5A84"/>
<path d="M232.16 98.502C232.16 98.502 237.166 109.52 233.662 116.706C231.159 121.497 253.183 135.39 252.182 129.162C251.181 121.497 246.676 116.706 250.68 107.604L232.16 98.502Z" fill="#EFC18F"/>
<path d="M249.178 78.3816C256.185 84.6094 262.693 105.209 255.685 111.437C252.682 114.311 241.169 118.144 232.66 106.167C229.156 101.377 224.651 91.7954 229.657 82.6931C231.659 78.3816 240.669 71.1956 249.178 78.3816Z" fill="#FFD9A8"/>
<path d="M260.69 80.7768C260.69 80.7768 257.687 85.5675 246.675 87.4838C235.663 89.4 238.666 92.2744 240.168 94.6697C243.672 101.856 236.164 99.4604 240.168 108.084C244.172 116.707 231.158 108.563 230.157 107.604C229.156 106.167 219.145 96.1069 225.152 83.1722C230.658 70.2374 250.679 74.0699 260.69 80.7768Z" fill="#9B4D34"/>
<path d="M248.679 200.543L238.167 284.858C238.167 284.858 232.161 346.178 223.151 365.82C221.149 370.132 206.133 369.653 204.631 364.862C196.622 341.388 211.638 266.654 211.638 266.654L214.642 201.022H248.679V200.543Z" fill="#52456B"/>
<path d="M232.162 200.543C217.646 217.31 249.18 286.295 249.18 286.295C249.18 286.295 247.178 339.471 258.691 354.801C261.193 358.155 276.71 358.634 277.711 354.801C284.218 332.285 277.711 274.319 277.711 274.319L271.204 200.543H248.68C248.68 200.543 234.665 197.668 232.162 200.543Z" fill="#675781"/>
<path d="M255.686 121.977C265.697 130.121 273.705 148.804 275.207 209.166C275.708 222.58 212.139 219.706 212.139 206.292C212.639 170.841 202.629 159.344 214.642 128.204C218.646 119.581 236.165 106.167 255.686 121.977Z" fill="#E66254"/>
<path d="M326.765 89.8793C326.765 89.8793 330.268 72.1539 332.271 77.4236C334.773 82.6933 336.275 87.0049 330.268 93.7118L326.765 89.8793Z" fill="#EFC18F"/>
<path d="M246.176 123.414C243.172 124.851 237.666 129.162 243.673 132.995C253.183 139.223 289.723 134.911 297.231 131.558C304.739 128.204 331.768 93.2326 331.768 93.2326C331.768 93.2326 330.767 88.442 326.262 89.4001L291.725 121.018C291.725 121.018 255.686 118.623 246.176 123.414Z" fill="#9991E2"/>
<g clip-path="url(#clip1_685:795)">
<path d="M25.6374 300.543V289.073C17.3034 288.715 8.96952 286.564 4.04492 283.697L7.83307 269.36C13.1365 272.228 20.7128 274.737 28.6679 274.737C35.8654 274.737 40.79 271.869 40.79 267.21C40.79 262.55 36.623 259.683 27.5315 256.457C13.8941 252.156 4.80255 246.063 4.80255 234.235C4.80255 223.482 12.7577 214.88 26.0162 212.371V200.543H38.5171V211.296C46.851 211.654 52.5332 213.446 56.7002 215.238L53.2909 229.217C49.8815 227.783 44.1993 224.916 35.1078 224.916C26.7738 224.916 24.1221 228.5 24.1221 231.726C24.1221 235.668 28.6679 238.177 39.2747 242.12C54.4273 247.138 60.4884 253.948 60.4884 265.059C60.4884 275.812 52.5332 285.131 38.1383 287.64V300.185H25.6374V300.543Z" fill="#80D2D6"/>
</g>
<path d="M159.806 54.6995H149.587V62.7268H159.806V54.6995Z" fill="#F3A43D"/>
<path d="M159.806 39.0825H149.587V46.5627H159.806V39.0825Z" fill="#F3A43D"/>
<path d="M172.235 52.8749C175.86 50.9046 177.931 47.4382 177.931 42.8042C177.965 35.4337 172.58 30.7632 164.156 30.7632H149.587V39.0825H159.806H163.535C166.331 39.0825 167.677 40.5055 167.677 42.8407C167.677 45.176 166.331 46.599 163.535 46.599H159.806H149.587V54.7358H159.806H162.568L167.712 62.7632H178.587L172.235 52.8749Z" fill="#F3A43D"/>
<path d="M161.456 53.2488H151.237V61.2761H161.456V53.2488Z" fill="#FED150"/>
<path d="M161.456 37.5315H151.237V45.2872H161.456V37.5315Z" fill="#FED150"/>
<path d="M173.885 51.4242C177.51 49.4539 179.581 45.9875 179.581 41.3535C179.616 33.983 174.23 29.3125 165.806 29.3125H151.237V37.6318H161.456H165.185C167.981 37.6318 169.328 39.0548 169.328 41.39C169.328 43.7253 167.981 45.1483 165.185 45.1483H161.456H151.237V53.2851H161.456H164.218L169.362 61.3125H180.237L173.885 51.4242Z" fill="#FED150"/>
<path d="M350.406 313.799H340.187V321.826H350.406V313.799Z" fill="#F3A43D"/>
<path d="M350.406 298.182H340.187V305.662H350.406V298.182Z" fill="#F3A43D"/>
<path d="M362.834 311.975C366.459 310.004 368.531 306.538 368.531 301.904C368.565 294.533 363.179 289.863 354.756 289.863H340.187V298.182H350.406H354.134C356.931 298.182 358.277 299.605 358.277 301.94C358.277 304.276 356.931 305.699 354.134 305.699H350.406H340.187V313.835H350.406H353.167L358.312 321.863H369.187L362.834 311.975Z" fill="#F3A43D"/>
<path d="M352.056 312.348H341.837V320.376H352.056V312.348Z" fill="#FED150"/>
<path d="M352.056 296.631H341.837V304.387H352.056V296.631Z" fill="#FED150"/>
<path d="M364.485 310.524C368.11 308.554 370.181 305.087 370.181 300.453C370.215 293.083 364.83 288.412 356.406 288.412H341.837V296.731H352.056H355.785C358.581 296.731 359.927 298.154 359.927 300.49C359.927 302.825 358.581 304.248 355.785 304.248H352.056H341.837V312.385H352.056H354.818L359.962 320.412H370.837L364.485 310.524Z" fill="#FED150"/>
</g>
<defs>
<clipPath id="clip0_685:795">
<rect width="462" height="389" fill="white" transform="translate(0.90918 0.293945)"/>
</clipPath>
<clipPath id="clip1_685:795">
<rect width="56.4434" height="100" fill="white" transform="translate(4.04492 200.543)"/>
</clipPath>
</defs>
</svg>
