<svg width="204" height="203" viewBox="0 0 204 203" fill="none" xmlns="http://www.w3.org/2000/svg">
<circle cx="101.983" cy="101.25" r="98.75" stroke="#A790C6" stroke-width="5"/>
<path d="M60.3161 147.347C59.1814 147.347 58.0467 146.915 57.1815 146.049C55.4493 144.317 55.4493 141.512 57.1815 139.782L140.512 56.4515C142.244 54.7193 145.049 54.7193 146.779 56.4515C148.512 58.1819 148.512 60.9886 146.779 62.719L63.449 146.049C62.5855 146.915 61.4508 147.347 60.3161 147.347Z" fill="#A790C6"/>
<path d="M72.8295 91.5888C67.835 91.5888 62.8405 89.6882 59.0392 85.8869C51.4349 78.2825 51.4349 65.9106 59.0392 58.3063C66.6453 50.7019 79.019 50.7019 86.6216 58.3063C94.2259 65.9106 94.2259 78.2843 86.6216 85.8869C82.8167 89.6882 77.824 91.5888 72.8295 91.5888ZM65.3049 79.6176C69.4537 83.7664 76.2017 83.7646 80.3505 79.6176C84.4975 75.4706 84.4975 68.7208 80.3505 64.572C76.2035 60.425 69.4537 60.425 65.3067 64.572C61.1597 68.7208 61.1597 75.4706 65.3049 79.6176Z" fill="#A790C6"/>
<path d="M131.136 149.897C126.143 149.897 121.148 147.996 117.347 144.193C113.663 140.511 111.633 135.612 111.633 130.405C111.633 125.195 113.663 120.297 117.347 116.614C121.03 112.93 125.928 110.9 131.137 110.9C136.346 110.9 141.243 112.93 144.926 116.614C152.53 124.219 152.53 136.59 144.926 144.195C141.125 147.996 136.132 149.897 131.136 149.897ZM131.137 119.765C128.295 119.765 125.625 120.871 123.615 122.882C121.604 124.892 120.498 127.564 120.498 130.405C120.498 133.245 121.604 135.915 123.615 137.926C127.762 142.073 134.51 142.076 138.658 137.926C142.805 133.777 142.805 127.029 138.658 122.882C136.65 120.871 133.978 119.765 131.137 119.765Z" fill="#A790C6"/>
</svg>
