<svg width="205" height="206" viewBox="0 0 205 206" fill="none" xmlns="http://www.w3.org/2000/svg">
<path d="M153.167 57.6726C153.167 56.1743 153.435 56.977 136.383 39.8809C135.207 38.7572 139.403 39.105 70.3139 39.105C69.605 39.105 68.9252 39.3869 68.424 39.8887C67.9227 40.3904 67.6412 41.0709 67.6412 41.7805V55.1577H54.2777C53.5688 55.1577 52.889 55.4395 52.3878 55.9413C51.8866 56.443 51.605 57.1235 51.605 57.8331V164.851C51.605 165.56 51.8866 166.241 52.3878 166.742C52.889 167.244 53.5688 167.526 54.2777 167.526H134.459C135.167 167.526 135.847 167.244 136.348 166.742C136.85 166.241 137.131 165.56 137.131 164.851V151.473H150.495C151.204 151.473 151.883 151.192 152.385 150.69C152.886 150.188 153.167 149.508 153.167 148.798C153.167 60.0002 153.167 58.3949 153.167 57.6726ZM144.054 55.1577H137.131V48.2283L144.054 55.1577ZM131.786 162.175H56.9504V60.5085H115.75V73.8857C115.75 74.5953 116.031 75.2758 116.532 75.7775C117.034 76.2793 117.714 76.5612 118.422 76.5612H131.786V162.175ZM121.095 64.2809L128.017 71.2103H121.095V64.2809ZM137.131 146.123C137.131 73.0831 137.425 74.0195 136.864 72.7888C136.57 72.0932 137.906 73.5379 120.32 55.9335C119.171 54.8099 121.229 55.1577 72.9865 55.1577V44.4559H131.786V57.8331C131.786 58.5427 132.067 59.2232 132.569 59.7249C133.07 60.2267 133.75 60.5085 134.459 60.5085H147.822V146.123H137.131Z" fill="#A790C6"/>
<circle cx="102.386" cy="103.29" r="99.7954" stroke="#A790C6" stroke-width="5"/>
<path d="M72.2798 88.9868C73.7648 87.5019 76.1725 87.5018 77.6575 88.9868L95.5832 106.913L113.509 88.9868C114.994 87.5018 117.401 87.5018 118.887 88.9868C120.372 90.4718 120.372 92.8795 118.887 94.3645L100.961 112.29L118.887 130.216C120.372 131.701 120.372 134.109 118.887 135.594C117.402 137.079 114.994 137.079 113.509 135.594L95.5832 117.668L77.6575 135.594C76.1725 137.079 73.7648 137.079 72.2798 135.594C70.7947 134.109 70.7948 131.701 72.2798 130.216L90.2055 112.29L72.2798 94.3645C70.7948 92.8795 70.7947 90.4719 72.2798 88.9868Z" fill="#A790C6"/>
</svg>
