<svg width="204" height="203" viewBox="0 0 204 203" fill="none" xmlns="http://www.w3.org/2000/svg">
<circle cx="102.202" cy="101.25" r="98.75" stroke="#A790C6" stroke-width="5"/>
<path d="M108.862 100.116H97.0514C91.6035 100.116 87.1655 95.6809 87.1655 90.2223C87.1655 84.7713 91.6035 80.3318 97.0514 80.3318H118.497C120.55 80.3318 122.221 78.6614 122.221 76.6048C122.221 74.5421 120.55 72.8764 118.497 72.8764H106.683V65.1895C106.683 63.133 105.013 61.4595 102.956 61.4595C100.893 61.4595 99.2229 63.1315 99.2229 65.1895V72.8764H97.0499C87.4843 72.8764 79.7086 80.6613 79.7086 90.2223C79.7086 99.6331 87.2329 107.314 96.5809 107.567C96.6499 107.573 96.725 107.576 96.797 107.576H108.862C114.31 107.576 118.748 112.009 118.748 117.463C118.748 122.919 114.31 127.354 108.862 127.354H86.551C84.4944 127.354 82.8148 129.024 82.8148 131.085C82.8148 133.143 84.4944 134.815 86.551 134.815H99.2244V142.496C99.2244 144.559 100.895 146.224 102.957 146.224C105.014 146.224 106.684 144.559 106.684 142.496V134.815H108.864C118.429 134.815 126.208 127.03 126.208 117.463C126.206 107.901 118.428 100.116 108.862 100.116ZM102.202 30.9697C63.4492 30.9697 31.9219 62.497 31.9219 101.25C31.9219 140.003 63.4492 171.53 102.202 171.53C140.955 171.53 172.482 140.003 172.482 101.25C172.482 62.497 140.955 30.9697 102.202 30.9697ZM102.202 163.868C67.6742 163.868 39.5842 135.778 39.5842 101.25C39.5842 66.722 67.6742 38.632 102.202 38.632C136.73 38.632 164.82 66.722 164.82 101.25C164.82 135.778 136.73 163.868 102.202 163.868Z" fill="#A790C6"/>
</svg>
