<svg width="203" height="203" viewBox="0 0 203 203" fill="none" xmlns="http://www.w3.org/2000/svg">
<circle cx="101.25" cy="101.291" r="98.75" stroke="#A790C6" stroke-width="5"/>
<path d="M103.668 33.6428C102.601 32.0458 99.956 32.0458 98.8893 33.6428C94.5655 40.1253 60.783 55.3312 48.4428 55.3312C46.8585 55.3312 44.4409 56.6189 44.4409 58.2033V112.753C44.4409 140.823 96.4591 169.215 99.3437 170.029C99.5962 170.098 100.423 170.136 100.688 170.136C100.953 170.136 102.626 170.098 102.879 170.029C105.271 169.353 158.059 138.853 158.059 115.625V58.2033C158.059 56.6189 155.642 55.3312 154.057 55.3312C140.227 55.3312 107.865 39.9297 103.668 33.6428ZM151.747 115.625C151.747 132.958 108.591 160.302 101.256 164.127C94.0921 160.479 50.753 135.072 50.753 112.753V60.8859C69.6894 59.2637 92.1605 47.6494 101.269 39.4689C110.156 47.561 132.811 59.4026 151.747 60.9112V115.625Z" fill="#A790C6"/>
<line x1="74.4698" y1="100.557" x2="91.1631" y2="117.25" stroke="#A790C6" stroke-width="7" stroke-linecap="round"/>
<line x1="91.1631" y1="117.25" x2="128.032" y2="80.3812" stroke="#A790C6" stroke-width="7" stroke-linecap="round"/>
</svg>
