<svg width="36" height="37" viewBox="0 0 36 37" fill="none" xmlns="http://www.w3.org/2000/svg">
<g clip-path="url(#clip0_685:985)">
<path d="M35.9995 34.2191H0.545898V36.5H35.9995V34.2191Z" fill="#EDF2FF"/>
<path d="M33.4033 15.8119H30.4102V33.2958H33.4033V15.8119Z" fill="#EDF2FF"/>
<path d="M27.8151 18.2285H24.8203V33.2958H27.8151V18.2285Z" fill="#EDF2FF"/>
<path d="M22.2243 20.5369H19.2295V33.2958H22.2243V20.5369Z" fill="#EDF2FF"/>
<path d="M16.6335 24.554H13.6387V33.2959H16.6335V24.554Z" fill="#EDF2FF"/>
<path d="M11.0417 27.1611H8.04688V33.2959H11.0417V27.1611Z" fill="#EDF2FF"/>
<path d="M5.4511 29.0067H2.45801V33.2958H5.4511V29.0067Z" fill="#EDF2FF"/>
<path d="M27.4542 9.45992L31.5478 10.7628L28.952 0.5L17.7707 6.6896L21.8635 8.15632C14.7768 22.1647 0 28.1385 0 28.1385C21.9644 22.2195 27.4542 9.45992 27.4542 9.45992Z" fill="#EDF2FF"/>
</g>
<defs>
<clipPath id="clip0_685:985">
<rect width="36" height="36" fill="white" transform="translate(0 0.5)"/>
</clipPath>
</defs>
</svg>
