<svg width="71" height="71" viewBox="0 0 71 71" fill="none" xmlns="http://www.w3.org/2000/svg">
<path d="M35.4991 69.193C54.1783 69.193 69.3209 54.0504 69.3209 35.3711C69.3209 16.6919 54.1783 1.54932 35.4991 1.54932C16.8198 1.54932 1.67725 16.6919 1.67725 35.3711C1.67725 54.0504 16.8198 69.193 35.4991 69.193Z" fill="white"/>
<path d="M35.5 71C15.8782 71 -3.74754e-07 55.1218 -2.41352e-07 35.5C-1.0795e-07 15.8782 16.0073 1.08828e-07 35.5 2.41352e-07C54.9927 3.73876e-07 71 15.8782 71 35.5C71 55.1218 55.1218 71 35.5 71ZM35.5 3.09818C17.6855 3.09818 3.22727 17.5564 3.22727 35.3709C3.22727 53.1855 17.6855 67.6436 35.5 67.6436C53.3145 67.6436 67.7727 53.1855 67.7727 35.3709C67.7727 17.5564 53.3145 3.09818 35.5 3.09818Z" fill="white"/>
<g opacity="0.3">
<path opacity="0.3" d="M35.4999 9.16528C21.0417 9.16528 9.29443 20.9126 9.29443 35.3707C9.29443 49.8289 21.0417 61.7053 35.4999 61.7053C49.9581 61.7053 61.7053 49.958 61.7053 35.4998C61.7053 21.0416 50.0872 9.16528 35.4999 9.16528Z" fill="#F6F7F6"/>
</g>
<path d="M35.5003 63.2551C20.1385 63.2551 7.6167 50.7333 7.6167 35.3715C7.6167 20.0097 20.1385 7.61694 35.5003 7.61694C50.8622 7.61694 63.384 20.1388 63.384 35.5006C63.384 50.8624 50.9912 63.2551 35.5003 63.2551ZM35.5003 10.8442C21.9458 10.8442 10.844 21.946 10.844 35.5006C10.844 49.0551 21.9458 60.1569 35.5003 60.1569C49.0549 60.1569 60.1567 49.0551 60.1567 35.5006C60.1567 21.946 49.184 10.8442 35.5003 10.8442Z" fill="#A790C6"/>
<path d="M40.9217 35.6294C40.018 35.1131 39.1144 34.5967 37.9526 34.3385C37.0489 34.0803 36.1453 33.8222 35.1126 33.564C34.209 33.3058 33.4344 33.0476 32.6599 32.7894C32.0144 32.5313 31.498 32.144 30.9817 31.7567C30.5944 31.3694 30.2071 30.9822 29.949 30.3367C29.8199 29.9494 29.5617 29.1749 29.5617 28.0131C29.5617 27.3676 29.6908 26.7222 29.949 26.0767C30.2071 25.4313 30.4653 24.9149 30.9817 24.5276C31.369 24.0113 32.0144 23.624 32.7889 23.3658C33.5635 23.1076 34.4671 22.8494 35.4999 22.8494C36.5326 22.8494 37.4362 22.9785 38.0817 23.3658C38.7271 23.624 39.3726 24.1403 39.7599 24.5276C40.1471 25.044 40.5344 25.6894 40.7926 26.3349C41.0508 27.1094 41.8253 27.4967 42.729 27.2385C43.5035 26.9803 43.8908 26.2058 43.6326 25.3022C43.2453 24.2694 42.729 23.2367 42.0835 22.4622C41.309 21.5585 40.4053 20.9131 39.3726 20.3967C38.7271 20.1385 37.8235 19.8803 37.049 19.7513L37.049 18.7185C37.049 17.944 36.4035 17.1694 35.4999 17.1694C34.7253 17.1694 33.9508 17.8149 33.9508 18.7185L33.9508 19.7513C33.0471 19.8803 32.2726 20.0094 31.6271 20.3967C30.4653 20.9131 29.5617 21.4294 28.9162 22.204C28.1417 22.9785 27.6253 23.8822 27.238 24.7858C26.8508 25.6894 26.7217 26.7222 26.7217 27.7549C26.7217 29.1749 26.9799 30.4658 27.3671 31.3694C27.7544 32.4022 28.3999 33.1767 29.1744 33.8222C29.9489 34.4676 30.7235 34.984 31.7562 35.3713C32.6599 35.7585 33.5635 36.0167 34.5962 36.2749C35.4999 36.5331 36.4035 36.7913 37.3071 37.0494C38.0817 37.3076 38.8562 37.6949 39.5017 38.0822C40.1471 38.4694 40.6635 38.9858 41.0508 39.6313C41.438 40.2767 41.6962 41.1803 41.6962 42.2131C41.6962 42.9876 41.5671 43.7622 41.3089 44.4076C41.0508 45.0531 40.7926 45.6985 40.2762 46.2149C39.889 46.7312 39.2435 47.1185 38.598 47.3767C37.9526 47.6349 37.0489 47.764 36.0162 47.764C35.1126 47.764 34.338 47.6349 33.6926 47.3767C32.918 47.1185 32.4017 46.7312 31.7562 46.2149C31.2399 45.6985 30.7235 45.0531 30.3362 44.1494C29.949 43.3749 29.1744 42.9876 28.3999 43.3749C27.6253 43.7622 27.238 44.5367 27.6253 45.3113C28.1417 46.6022 28.9162 47.6349 29.8199 48.4094C30.7235 49.184 31.7562 49.8294 32.7889 50.2167C33.1762 50.3458 33.6926 50.4749 34.209 50.604L34.209 51.7658C34.209 52.5403 34.8544 53.3149 35.758 53.3149C36.5326 53.3149 37.3071 52.6694 37.3071 51.7658L37.3071 50.7331C38.2108 50.604 39.1144 50.4749 39.8889 50.0876C41.0508 49.5712 41.9544 48.9258 42.729 48.1512C43.5035 47.3767 44.0199 46.344 44.4071 45.3113C44.7944 44.2785 44.9235 43.2458 44.9235 42.2131C44.9235 40.5349 44.5362 39.1149 43.8908 38.0822C42.7289 37.1785 41.9544 36.2749 40.9217 35.6294Z" fill="#A790C6"/>
</svg>
