<svg width="82" height="82" viewBox="0 0 82 82" fill="none" xmlns="http://www.w3.org/2000/svg">
<path d="M81.4135 41.2067C81.4135 19.0366 63.3769 1 41.2067 1C19.0366 1 1 19.0366 1 41.2067C1 52.2918 5.50829 62.3435 12.7883 69.6218C12.8242 69.656 12.855 69.6919 12.8943 69.7227C20.1641 76.9445 30.173 81.4135 41.2067 81.4135C52.0745 81.4135 61.9397 77.0728 69.1838 70.0427C69.2231 70.005 69.2676 69.9708 69.3035 69.9297C76.7683 62.6275 81.4135 52.4509 81.4135 41.2067ZM41.2067 4.42185C61.4897 4.42185 77.9916 20.9237 77.9916 41.2067C77.9916 50.2096 74.7306 58.4563 69.3395 64.8568C67.3719 50.6579 59.2536 46.6235 51.4466 45.5097C56.6855 42.1306 60.1689 36.2587 60.1689 29.5759C60.1689 19.1204 51.6622 10.6137 41.2067 10.6137C30.7513 10.6137 22.2446 19.1204 22.2446 29.5759C22.2446 36.2485 25.716 42.1152 30.9412 45.4943C22.0854 46.5465 18.0066 50.4971 13.2263 65.0245C7.7496 58.6017 4.42185 50.2917 4.42185 41.2067C4.42185 20.9237 20.9237 4.42185 41.2067 4.42185ZM41.1674 45.1145C32.6162 45.0922 25.6664 38.1322 25.6664 29.5759C25.6664 21.0076 32.6367 14.0355 41.2067 14.0355C49.7767 14.0355 56.7471 21.0076 56.7471 29.5759C56.7471 38.1288 49.8024 45.0854 41.2563 45.1128L41.1674 45.1145ZM15.9141 67.8475C21.9811 48.5534 25.7639 48.538 40.8235 48.538L41.1691 48.5363C41.1828 48.5363 41.1948 48.538 41.2067 48.538C41.2238 48.538 41.2392 48.5363 41.2546 48.5363L42.5755 48.5295C52.4903 48.4491 64.8278 48.3516 66.2307 68.0905C59.6608 74.2122 50.8769 77.9916 41.2067 77.9916C31.4066 77.9916 22.5132 74.1164 15.9141 67.8475Z" fill="#F6F6F6" stroke="#A790C6" stroke-width="0.476676"/>
</svg>
