<svg width="64" height="71" viewBox="0 0 64 71" fill="none" xmlns="http://www.w3.org/2000/svg">
<path d="M62.0831 28.6538L15.3106 28.6538L10.9839 19.9829C10.8511 19.717 10.6465 19.4937 10.3933 19.3381C10.1401 19.1825 9.84841 19.1009 9.55124 19.1026L1.59187 19.1026C1.16968 19.1026 0.764784 19.2703 0.466249 19.5688C0.167715 19.8673 -7.95242e-09 20.2722 -1.08228e-08 20.6944C-1.36931e-08 21.1166 0.167715 21.5215 0.466249 21.8201C0.764783 22.1186 1.16968 22.2863 1.59187 22.2863L8.56746 22.2863L12.8353 30.8235L18.5835 50.94L17.5106 50.94C17.0884 50.94 16.6835 51.1078 16.385 51.4063C16.0865 51.7048 15.9187 52.1097 15.9187 52.5319L15.9187 58.8994C15.9187 59.3216 16.0865 59.7265 16.385 60.025C16.6835 60.3236 17.0884 60.4913 17.5106 60.4913L23.1713 60.4913C22.5984 61.4549 22.2928 62.5539 22.2862 63.675C22.2862 65.3638 22.9571 66.9834 24.1512 68.1775C25.3454 69.3717 26.965 70.0425 28.6537 70.0425C30.3425 70.0425 31.9621 69.3717 33.1562 68.1775C34.3504 66.9834 35.0212 65.3638 35.0212 63.675C35.0146 62.5539 34.7091 61.4549 34.1361 60.4913L42.2738 60.4913C41.7008 61.4549 41.3953 62.5539 41.3887 63.675C41.3887 64.9344 41.7622 66.1655 42.4618 67.2126C43.1615 68.2597 44.156 69.0759 45.3195 69.5578C46.483 70.0398 47.7633 70.1659 48.9984 69.9202C50.2336 69.6745 51.3682 69.068 52.2587 68.1775C53.1492 67.287 53.7557 66.1524 54.0014 64.9173C54.247 63.6821 54.1209 62.4018 53.639 61.2383C53.1571 60.0748 52.3409 59.0803 51.2938 58.3806C50.2467 57.681 49.0156 57.3075 47.7562 57.3075L19.1025 57.3075L19.1025 54.1238L55.7156 54.1238C56.0618 54.1239 56.3986 54.0111 56.6749 53.8025C56.9513 53.594 57.1521 53.301 57.247 52.9681L63.6145 30.6819C63.6819 30.445 63.6935 30.1956 63.6483 29.9535C63.6031 29.7113 63.5023 29.483 63.3539 29.2864C63.2054 29.0898 63.0134 28.9304 62.7929 28.8206C62.5724 28.7108 62.3294 28.6537 62.0831 28.6538ZM47.7562 60.4913C48.3859 60.4913 49.0014 60.678 49.525 61.0278C50.0486 61.3777 50.4566 61.8749 50.6976 62.4567C50.9386 63.0384 51.0016 63.6786 50.8788 64.2961C50.7559 64.9137 50.4527 65.481 50.0075 65.9263C49.5622 66.3715 48.9949 66.6748 48.3773 66.7976C47.7597 66.9204 47.1196 66.8574 46.5378 66.6164C45.9561 66.3755 45.4589 65.9674 45.109 65.4438C44.7592 64.9203 44.5725 64.3047 44.5725 63.675C44.5725 62.8306 44.9079 62.0208 45.505 61.4238C46.102 60.8267 46.9118 60.4913 47.7562 60.4913ZM28.6537 60.4913C29.2834 60.4913 29.899 60.678 30.4225 61.0278C30.9461 61.3777 31.3542 61.8749 31.5951 62.4567C31.8361 63.0384 31.8991 63.6786 31.7763 64.2961C31.6535 64.9137 31.3502 65.481 30.905 65.9263C30.4597 66.3715 29.8924 66.6748 29.2748 66.7976C28.6573 66.9204 28.0171 66.8574 27.4354 66.6164C26.8536 66.3755 26.3564 65.9674 26.0065 65.4438C25.6567 64.9203 25.47 64.3047 25.47 63.675C25.47 62.8306 25.8054 62.0208 26.4025 61.4238C26.9995 60.8267 27.8093 60.4913 28.6537 60.4913ZM28.6537 50.94L21.8946 50.94L19.6214 42.9807L28.6537 42.9807L28.6537 50.94ZM28.6537 39.7969L18.7109 39.7969L16.4377 31.8376L28.6537 31.8376L28.6537 39.7969ZM44.5725 50.94L31.8375 50.94L31.8375 42.9807L44.5725 42.9807L44.5725 50.94ZM44.5725 39.7969L31.8375 39.7969L31.8375 31.8376L44.5725 31.8376L44.5725 39.7969ZM54.5153 50.94L47.7562 50.94L47.7562 42.9807L56.7885 42.9807L54.5153 50.94ZM57.6991 39.7969L47.7562 39.7969L47.7562 31.8376L59.9722 31.8376L57.6991 39.7969Z" fill="white"/>
<path d="M52.1419 25.3331C52.3422 25.4227 52.5591 25.4694 52.7786 25.47C53.087 25.4702 53.3889 25.3808 53.6475 25.2126C53.9061 25.0445 54.1102 24.8048 54.2352 24.5228C55.2152 22.3152 55.7196 19.926 55.7156 17.5106C55.7156 12.8665 53.8707 8.41262 50.5869 5.12874C47.303 1.84486 42.8491 1.50623e-07 38.205 1.19049e-07C33.5609 8.74753e-08 29.107 1.84486 25.8231 5.12874C22.5392 8.41262 20.6944 12.8665 20.6944 17.5106C20.6884 19.9255 21.1906 22.3147 22.1685 24.5228C22.3459 24.8986 22.6633 25.1901 23.0527 25.335C23.4422 25.4799 23.8729 25.4668 24.2528 25.2985C24.6327 25.1301 24.9318 24.8199 25.086 24.434C25.2403 24.0482 25.2376 23.6173 25.0784 23.2334C24.2815 21.431 23.8726 19.4813 23.8781 17.5106C23.8781 13.7109 25.3876 10.0668 28.0744 7.37999C30.7612 4.69318 34.4053 3.18375 38.205 3.18375C42.0047 3.18375 45.6488 4.69318 48.3356 7.37999C51.0224 10.0668 52.5319 13.7109 52.5319 17.5106C52.5374 19.4813 52.1285 21.431 51.3316 23.2334C51.1607 23.6193 51.1501 24.0572 51.302 24.451C51.454 24.8447 51.7561 25.162 52.1419 25.3331Z" fill="white"/>
<path d="M39.7968 27.0623L39.7968 25.4704L42.9805 25.4704C43.4027 25.4704 43.8076 25.3027 44.1061 25.0042C44.4047 24.7056 44.5724 24.3007 44.5724 23.8785L44.5724 17.511C44.5724 17.0888 44.4047 16.6839 44.1061 16.3854C43.8076 16.0869 43.4027 15.9192 42.9805 15.9192L35.0211 15.9192L35.0211 12.7354L42.9805 12.7354C43.4027 12.7354 43.8076 12.5677 44.1061 12.2692C44.4047 11.9706 44.5724 11.5657 44.5724 11.1435C44.5724 10.7213 44.4047 10.3165 44.1061 10.0179C43.8076 9.71938 43.4027 9.55167 42.9805 9.55167L39.7968 9.55167L39.7968 7.95979C39.7968 7.5376 39.6291 7.1327 39.3305 6.83417C39.032 6.53564 38.6271 6.36792 38.2049 6.36792C37.7827 6.36792 37.3778 6.53564 37.0793 6.83417C36.7807 7.1327 36.613 7.5376 36.613 7.95979L36.613 9.55167L33.4293 9.55167C33.0071 9.55167 32.6022 9.71938 32.3037 10.0179C32.0051 10.3165 31.8374 10.7213 31.8374 11.1435L31.8374 17.511C31.8374 17.9332 32.0051 18.3381 32.3037 18.6367C32.6022 18.9352 33.0071 19.1029 33.4293 19.1029L41.3886 19.1029L41.3886 22.2867L33.4293 22.2867C33.0071 22.2867 32.6022 22.4544 32.3036 22.7529C32.0051 23.0514 31.8374 23.4563 31.8374 23.8785C31.8374 24.3007 32.0051 24.7056 32.3036 25.0042C32.6022 25.3027 33.0071 25.4704 33.4293 25.4704L36.613 25.4704L36.613 27.0623C36.613 27.4845 36.7807 27.8894 37.0793 28.1879C37.3778 28.4864 37.7827 28.6542 38.2049 28.6542C38.6271 28.6542 39.032 28.4864 39.3305 28.1879C39.6291 27.8894 39.7968 27.4845 39.7968 27.0623Z" fill="white"/>
</svg>
