<svg width="72" height="72" viewBox="0 0 72 72" fill="none" xmlns="http://www.w3.org/2000/svg">
<path d="M54.773 17.8757L62.9402 20.475L57.7614 3.92699e-07L35.4539 12.3487L43.6194 15.2749C29.4807 43.2226 -3.74883e-07 55.1407 -3.74883e-07 55.1407C43.8205 43.3321 54.773 17.8757 54.773 17.8757Z" fill="white"/>
<path d="M22.0286 53.1904L16.0537 53.1904L16.0537 65.4297L22.0286 65.4297L22.0286 53.1904Z" fill="white"/>
<path d="M33.1849 47.9883L27.21 47.9883L27.21 65.4291L33.1849 65.4291L33.1849 47.9883Z" fill="white"/>
<path d="M44.341 39.9746L38.3662 39.9746L38.3662 65.4295L44.341 65.4295L44.341 39.9746Z" fill="white"/>
<path d="M55.4944 35.3691L49.5195 35.3691L49.5195 65.4295L55.4944 65.4295L55.4944 35.3691Z" fill="white"/>
<path d="M66.6424 30.5483L60.6709 30.5483L60.6709 65.43L66.6424 65.43L66.6424 30.5483Z" fill="white"/>
<path d="M71.8223 67.2715L1.08984 67.2715L1.08984 71.8221L71.8223 71.8221L71.8223 67.2715Z" fill="white"/>
</svg>
