<svg width="62" height="65" viewBox="0 0 62 65" fill="none" xmlns="http://www.w3.org/2000/svg">
<path d="M60.4752 5.3613L49.204 5.3613L35.3082 1.10366C34.4738 0.847244 33.589 0.768754 32.7182 0.873904C31.8474 0.979053 31.0125 1.2652 30.2743 1.71151L21.9014 6.7631C21.8111 6.81752 21.7331 6.88811 21.6718 6.97085C21.6105 7.05359 21.5672 7.14686 21.5443 7.24533C21.5214 7.34379 21.5193 7.44553 21.5383 7.54473C21.5573 7.64393 21.5969 7.73866 21.6548 7.82349C21.7127 7.90833 21.7879 7.98161 21.876 8.03917C21.9641 8.09672 22.0634 8.13741 22.1683 8.15892C22.2731 8.18043 22.3815 8.18233 22.4871 8.16452C22.5927 8.14671 22.6936 8.10954 22.7839 8.05512L31.1568 3.01023C31.6915 2.68774 32.2961 2.48144 32.9265 2.40639C33.5569 2.33134 34.1972 2.38943 34.8007 2.57643L48.8248 6.86084C48.9062 6.88598 48.9915 6.89863 49.0772 6.89833L59.6598 6.89833L59.6598 19.7931L53.5794 19.7931C53.4295 19.7932 53.2826 19.832 53.1547 19.9052C53.0267 19.9784 52.9226 20.0832 52.8537 20.2081C51.9379 21.663 50.539 22.7956 48.8719 23.4321L48.8719 19.9818C50.182 19.457 51.5806 18.5439 52.4731 16.952C52.5233 16.8626 52.5544 16.7649 52.5644 16.6643C52.5745 16.5637 52.5633 16.4623 52.5316 16.3657C52.4999 16.2692 52.4483 16.1795 52.3796 16.1017C52.311 16.0239 52.2267 15.9595 52.1316 15.9123C52.0365 15.8651 51.9324 15.836 51.8253 15.8265C51.7182 15.8171 51.6102 15.8276 51.5074 15.8573C51.4046 15.8871 51.3091 15.9356 51.2262 16.0001C51.1434 16.0645 51.0749 16.1437 51.0246 16.233C49.4706 19.0232 45.6071 19.1477 45.5857 19.1477C40.4106 19.1477 38.9166 15.755 38.8567 15.6144C38.7974 15.4696 38.6928 15.345 38.5566 15.257C38.4205 15.1691 38.2592 15.1219 38.094 15.1217L30.414 15.1217C30.1228 15.1287 29.833 15.0809 29.5617 14.981C29.2905 14.8812 29.0433 14.7314 28.8347 14.5404C28.6261 14.3494 28.4603 14.1212 28.3471 13.8691C28.2339 13.617 28.1755 13.3462 28.1755 13.0726C28.1755 12.799 28.2339 12.5281 28.3471 12.276C28.4603 12.024 28.6261 11.7957 28.8347 11.6047C29.0433 11.4137 29.2905 11.2639 29.5617 11.1641C29.833 11.0643 30.1228 11.0164 30.414 11.0234L39.5809 11.0234C39.6912 11.0277 39.8012 11.0111 39.9044 10.9744C40.0076 10.9378 40.1019 10.8819 40.1815 10.8102C40.2611 10.7385 40.3245 10.6524 40.3678 10.5571C40.4111 10.4617 40.4334 10.3592 40.4334 10.2556C40.4334 10.1519 40.4111 10.0494 40.3678 9.95407C40.3245 9.85876 40.2611 9.77265 40.1815 9.70092C40.1019 9.62919 40.0076 9.57333 39.9044 9.53669C39.8012 9.50005 39.6912 9.48339 39.5809 9.48772L30.414 9.48772C29.9065 9.47851 29.4022 9.56442 28.9304 9.74044C28.4587 9.91646 28.0291 10.179 27.6668 10.5128C27.3044 10.8466 27.0166 11.2449 26.82 11.6845C26.6235 12.124 26.5223 12.5959 26.5223 13.0726C26.5223 13.5493 26.6235 14.0212 26.82 14.4607C27.0166 14.9002 27.3044 15.2985 27.6668 15.6323C28.0291 15.9661 28.4587 16.2287 28.9304 16.4047C29.4022 16.5807 29.9065 16.6666 30.414 16.6574L37.5822 16.6574C38.265 17.8343 40.452 20.6834 45.6029 20.6834C46.1533 20.6605 46.7003 20.5892 47.2366 20.4705L47.2366 31.851C47.2363 32.1513 47.1091 32.4392 46.883 32.6515C46.6569 32.8639 46.3503 32.9833 46.0305 32.9837L3.84132 32.9837C3.52192 32.9833 3.21564 32.8643 2.98939 32.6526C2.76314 32.4409 2.6353 32.1536 2.63379 31.8537L2.63379 12.1561C2.63417 11.8558 2.76136 11.5679 2.98747 11.3556C3.21357 11.1432 3.52013 11.0238 3.83989 11.0234L24.6872 11.0234C24.7974 11.0277 24.9074 11.0111 25.0106 10.9744C25.1139 10.9378 25.2081 10.8819 25.2877 10.8102C25.3674 10.7385 25.4307 10.6524 25.474 10.5571C25.5173 10.4617 25.5396 10.3592 25.5396 10.2556C25.5396 10.1519 25.5173 10.0494 25.474 9.95407C25.4307 9.85876 25.3674 9.77265 25.2877 9.70092C25.2081 9.62919 25.1139 9.57333 25.0106 9.53669C24.9074 9.50005 24.7974 9.48339 24.6872 9.48772L3.84132 9.48772C3.08856 9.49019 2.36739 9.77211 1.83511 10.272C1.30283 10.7719 1.00263 11.4492 1 12.1561L1 31.8537C1.00263 32.5606 1.30283 33.2379 1.83511 33.7378C2.36739 34.2377 3.08856 34.5196 3.84132 34.5221L46.0305 34.5221C46.7833 34.5196 47.5045 34.2377 48.0368 33.7378C48.569 33.2379 48.8692 32.5606 48.8719 31.8537L48.8719 25.0589C51.803 24.1819 53.4439 22.1964 54.0427 21.3274L60.4752 21.3274C60.692 21.3274 60.8999 21.2466 61.0534 21.1028C61.2068 20.959 61.2932 20.7638 61.2935 20.5602L61.2935 6.12981C61.2935 5.92599 61.2073 5.73051 61.0539 5.58639C60.9004 5.44226 60.6923 5.3613 60.4752 5.3613Z" fill="white"/>
<path d="M11.6596 26.1654L11.6596 18.0523C12.5355 17.8967 13.3409 17.5019 13.9717 16.9188C14.6024 16.3358 15.0295 15.5913 15.1979 14.7816L29.4166 14.7816C29.6314 14.7733 29.8345 14.6886 29.9833 14.5451C30.1322 14.4017 30.2153 14.2106 30.2153 14.0119C30.2153 13.8131 30.1322 13.6221 29.9833 13.4786C29.8345 13.3352 29.6314 13.2505 29.4166 13.2422L14.4443 13.2422C14.2233 13.2422 14.0113 13.3234 13.855 13.4678C13.6987 13.6123 13.6109 13.8082 13.6109 14.0126C13.6115 14.3509 13.54 14.686 13.4004 14.9988C13.2608 15.3116 13.0559 15.5958 12.7974 15.8354C12.539 16.0749 12.232 16.2651 11.894 16.3949C11.556 16.5247 11.1936 16.5918 10.8276 16.5921C10.6088 16.5935 10.3994 16.6744 10.2446 16.8173C10.0897 16.9601 10.0019 17.1536 10 17.3558L10 26.8633C10 26.9644 10.0216 27.0646 10.0635 27.1579C10.1054 27.2513 10.1668 27.3362 10.2442 27.4076C10.3216 27.479 10.4135 27.5356 10.5146 27.5742C10.6157 27.6128 10.724 27.6325 10.8334 27.6324C11.5715 27.6334 12.279 27.905 12.8008 28.3876C13.3225 28.8701 13.616 29.5243 13.6168 30.2066C13.6168 30.3077 13.6383 30.4078 13.6802 30.5012C13.7221 30.5945 13.7835 30.6794 13.8609 30.7508C13.9383 30.8222 14.0302 30.8789 14.1313 30.9174C14.2324 30.956 14.3408 30.9758 14.4502 30.9756L46.3359 30.9756C46.4453 30.9758 46.5536 30.956 46.6547 30.9174C46.7559 30.8789 46.8477 30.8222 46.9251 30.7508C47.0026 30.6794 47.064 30.5945 47.1059 30.5012C47.1478 30.4078 47.1693 30.3077 47.1693 30.2066C47.1701 29.5243 47.4635 28.8701 47.9853 28.3876C48.5071 27.905 49.2146 27.6334 49.9527 27.6324C50.0621 27.6325 50.1704 27.6128 50.2715 27.5742C50.3726 27.5356 50.4645 27.479 50.5419 27.4076C50.6193 27.3362 50.6807 27.2513 50.7226 27.1579C50.7645 27.0646 50.7861 26.9644 50.7861 26.8633L50.7861 23.3846C50.7908 23.2808 50.7727 23.1772 50.733 23.08C50.6932 22.9829 50.6327 22.8941 50.5549 22.8192C50.4771 22.7442 50.3837 22.6846 50.2804 22.6438C50.177 22.6031 50.0658 22.582 49.9534 22.582C49.841 22.582 49.7298 22.6031 49.6265 22.6438C49.5231 22.6846 49.4297 22.7442 49.3519 22.8192C49.2741 22.8941 49.2136 22.9829 49.1738 23.08C49.1341 23.1772 49.116 23.2808 49.1207 23.3846L49.1207 26.1654C48.2449 26.3214 47.4397 26.7163 46.809 27.2993C46.1784 27.8823 45.7511 28.6266 45.5824 29.4362L15.1979 29.4362C15.0292 28.6266 14.6019 27.8823 13.9712 27.2993C13.3406 26.7163 12.5354 26.3214 11.6596 26.1654Z" fill="white"/>
<path d="M30.2366 19.6154L31.8763 19.6154C32.0521 19.6072 32.2182 19.5228 32.34 19.3798C32.4618 19.2369 32.5298 19.0465 32.5298 18.8485C32.5298 18.6504 32.4618 18.46 32.34 18.3171C32.2182 18.1742 32.0521 18.0898 31.8763 18.0815L31.3404 18.0815L31.3404 17.588C31.3443 17.4846 31.3295 17.3814 31.297 17.2846C31.2645 17.1877 31.2149 17.0993 31.1512 17.0246C31.0876 16.9499 31.0112 16.8905 30.9266 16.8499C30.842 16.8093 30.751 16.7883 30.659 16.7883C30.5671 16.7883 30.4761 16.8093 30.3915 16.8499C30.3069 16.8905 30.2305 16.9499 30.1668 17.0246C30.1032 17.0993 30.0536 17.1877 30.0211 17.2846C29.9886 17.3814 29.9738 17.4846 29.9776 17.588L29.9776 18.1002C29.4175 18.1478 28.8965 18.4416 28.5272 18.918C28.1579 19.3944 27.9699 20.0153 28.0039 20.6464C28.0379 21.2775 28.2912 21.8683 28.709 22.2909C29.1268 22.7136 29.6755 22.9343 30.2366 22.9054L31.0802 22.9054C31.2876 22.9054 31.4864 22.9981 31.6331 23.1631C31.7797 23.3281 31.862 23.5519 31.862 23.7853C31.862 24.0187 31.7797 24.2425 31.6331 24.4076C31.4864 24.5726 31.2876 24.6653 31.0802 24.6653L29.443 24.6653C29.3511 24.661 29.2594 24.6776 29.1734 24.7142C29.0874 24.7508 29.0088 24.8066 28.9424 24.8783C28.8761 24.9499 28.8233 25.0359 28.7872 25.1311C28.7511 25.2264 28.7325 25.3288 28.7325 25.4323C28.7325 25.5358 28.7511 25.6382 28.7872 25.7334C28.8233 25.8287 28.8761 25.9147 28.9424 25.9863C29.0088 26.058 29.0874 26.1138 29.1734 26.1504C29.2594 26.187 29.3511 26.2036 29.443 26.1993L29.9776 26.1993L29.9776 26.6928C29.985 26.8906 30.06 27.0777 30.187 27.2147C30.3139 27.3518 30.4831 27.4284 30.659 27.4284C30.835 27.4284 31.0041 27.3518 31.1311 27.2147C31.2581 27.0777 31.3331 26.8906 31.3404 26.6928L31.3404 26.1765C31.9011 26.1295 32.4227 25.8358 32.7924 25.3591C33.1621 24.8825 33.3503 24.2611 33.3161 23.6295C33.2819 22.9979 33.0281 22.4068 32.6096 21.9842C32.1912 21.5616 31.6418 21.3415 31.0802 21.3714L30.2366 21.3714C30.1317 21.376 30.0269 21.3567 29.9287 21.3147C29.8305 21.2726 29.7408 21.2087 29.6651 21.1267C29.5894 21.0447 29.5291 20.9464 29.488 20.8376C29.4468 20.7287 29.4256 20.6117 29.4256 20.4934C29.4256 20.3752 29.4468 20.2581 29.488 20.1493C29.5291 20.0405 29.5894 19.9421 29.6651 19.8601C29.7408 19.7781 29.8305 19.7142 29.9287 19.6722C30.0269 19.6301 30.1317 19.6108 30.2366 19.6154Z" fill="white"/>
<path d="M30.2595 22.3709C30.0958 22.5361 30.0027 22.759 30 22.9922C29.9999 23.0512 30.0061 23.11 30.0185 23.1677C30.0294 23.2243 30.0465 23.2795 30.0695 23.3324C30.0907 23.3872 30.1182 23.4393 30.1514 23.4877C30.1826 23.5359 30.2189 23.5807 30.2595 23.6213C30.3007 23.6628 30.3457 23.7002 30.3939 23.7331C30.4427 23.765 30.4944 23.792 30.5484 23.8139C30.6023 23.8364 30.6581 23.854 30.7152 23.8667C30.7722 23.8773 30.8302 23.8825 30.8882 23.8822C31.1227 23.8814 31.3475 23.7876 31.5138 23.6213C31.5549 23.5803 31.5922 23.5356 31.625 23.4877C31.6559 23.4379 31.6833 23.386 31.7069 23.3324C31.7273 23.2788 31.7438 23.2237 31.7563 23.1677C31.7682 23.11 31.7739 23.0511 31.7733 22.9922C31.772 22.8166 31.719 22.6453 31.6211 22.4999C31.5232 22.3545 31.3847 22.2414 31.223 22.175C31.0613 22.1086 30.8837 22.0917 30.7125 22.1266C30.5414 22.1614 30.3843 22.2464 30.2611 22.3709L30.2595 22.3709Z" fill="white"/>
<path d="M30.1491 23.4951C30.1823 23.5415 30.2195 23.5852 30.2603 23.6254C30.3525 23.7166 30.4642 23.7866 30.5873 23.8302C30.7105 23.8737 30.842 23.8899 30.9723 23.8774C31.1026 23.8649 31.2284 23.8241 31.3407 23.758C31.4529 23.6919 31.5487 23.602 31.6212 23.4951C31.6544 23.4478 31.6819 23.3969 31.7031 23.3435C31.7261 23.2919 31.7432 23.238 31.754 23.1828C31.7663 23.1275 31.7725 23.0711 31.7726 23.0145C31.7776 22.8973 31.7583 22.7803 31.7161 22.6706C31.6738 22.5609 31.6093 22.4606 31.5266 22.376C31.4438 22.2913 31.3445 22.2239 31.2345 22.1779C31.1245 22.1319 31.0062 22.1082 30.8867 22.1082C30.7671 22.1082 30.6488 22.1319 30.5388 22.1779C30.4289 22.2239 30.3295 22.2913 30.2468 22.376C30.164 22.4606 30.0995 22.5609 30.0573 22.6706C30.015 22.7803 29.9958 22.8973 30.0008 23.0145C30.0011 23.071 30.0068 23.1273 30.0178 23.1828C30.0301 23.2377 30.0471 23.2914 30.0687 23.3435C30.0912 23.3961 30.1181 23.4468 30.1491 23.4951Z" fill="white"/>
<path d="M55.7618 40.6421C55.014 40.0624 54.0728 39.7806 53.1245 39.8526C52.1761 39.9245 51.2897 40.345 50.6406 41.0307L45.5739 46.4337C45.4974 46.5089 45.4372 46.5986 45.3967 46.6974C45.3563 46.7962 45.3365 46.902 45.3385 47.0085C45.3406 47.115 45.3644 47.22 45.4086 47.3172C45.4528 47.4144 45.5164 47.5018 45.5957 47.5742C45.675 47.6465 45.7682 47.7023 45.8699 47.7382C45.9716 47.7741 46.0796 47.7894 46.1874 47.7832C46.2952 47.7769 46.4006 47.7492 46.4973 47.7018C46.594 47.6544 46.68 47.5881 46.7501 47.5071L51.8168 42.1041C52.1905 41.709 52.701 41.4668 53.2472 41.4255C53.7934 41.3841 54.3354 41.5467 54.7658 41.8809C54.9915 42.0577 55.1794 42.277 55.3184 42.5261C55.4575 42.7752 55.5449 43.0491 55.5757 43.3318C55.6065 43.6145 55.5801 43.9004 55.4979 44.173C55.4156 44.4455 55.2793 44.6992 55.0968 44.9193L46.2765 55.5599C45.636 56.3349 44.7235 56.8439 43.7201 56.9861L26.6467 59.4238C25.7794 59.55 24.9532 59.8715 24.232 60.3633C23.5109 60.855 22.9141 61.5039 22.488 62.2596L22.0214 63.0864L6.31552 63.0864L14.4513 51.2263C15.6155 49.5163 17.2318 48.1531 19.1251 47.2843C21.0184 46.4155 23.1166 46.0741 25.1924 46.2973C26.5691 46.4382 27.925 46.7336 29.2338 47.1778C30.1229 47.4914 31.0597 47.6535 32.0039 47.6573L40.1691 47.6573C40.795 47.658 41.3951 47.9036 41.8376 48.3402C42.2802 48.7768 42.5292 49.3687 42.5299 49.9861C42.5292 50.6525 42.2605 51.2913 41.7828 51.7625C41.3051 52.2337 40.6574 52.4988 39.9819 52.4995L32.5013 52.4995C31.2768 52.4993 30.0908 52.9214 29.1486 53.6928L27.3912 55.1314C27.234 55.2672 27.1368 55.4582 27.1202 55.6637C27.1037 55.8692 27.1691 56.073 27.3026 56.2316C27.4361 56.3902 27.6271 56.4911 27.8349 56.5129C28.0427 56.5347 28.2509 56.4756 28.4152 56.3481L30.1712 54.9095C30.824 54.3759 31.645 54.0835 32.4929 54.0828L39.9791 54.0828C41.0794 54.0813 42.1342 53.6495 42.9122 52.8821C43.6902 52.1146 44.1279 51.0742 44.1294 49.9888C44.1279 48.9525 43.7099 47.959 42.967 47.2262C42.2241 46.4933 41.2169 46.081 40.1663 46.0796L32.0039 46.0796C31.2419 46.0755 30.4861 45.9436 29.7688 45.6896C28.3446 45.2037 26.8687 44.8801 25.3699 44.725C23.0039 44.4695 20.6121 44.8574 18.4536 45.8467C16.2951 46.836 14.4521 48.389 13.1242 50.3375L4.14188 63.4281C4.05866 63.5471 4.01007 63.6863 4.0014 63.8306C3.99274 63.9748 4.02431 64.1187 4.09271 64.2465C4.1611 64.3744 4.26369 64.4813 4.38934 64.5556C4.515 64.63 4.6589 64.6689 4.80543 64.6683L22.4935 64.6683C22.6368 64.6674 22.7772 64.6285 22.9001 64.5558C23.0229 64.4831 23.1238 64.3792 23.192 64.2549L23.8905 63.0147C24.1969 62.472 24.6258 62.006 25.1439 61.6529C25.662 61.2997 26.2555 61.0689 26.8786 60.9781L43.9562 58.5501C45.3563 58.3516 46.6297 57.6414 47.524 56.5604L56.3443 45.9197C56.6621 45.5377 56.8995 45.0971 57.0427 44.6236C57.186 44.1501 57.2321 43.6532 57.1786 43.1618C57.125 42.6705 56.9727 42.1947 56.7307 41.7621C56.4886 41.3294 56.1616 40.9487 55.7688 40.6421L55.7618 40.6421Z" fill="white"/>
</svg>
